<?xml version="1.0" standalone="no"?>
<!DOCTYPE svg PUBLIC "-//W3C//DTD SVG 20010904//EN"
 "http://www.w3.org/TR/2001/REC-SVG-20010904/DTD/svg10.dtd">
<svg version="1.0" xmlns="http://www.w3.org/2000/svg"
 width="1500.000000pt" height="461.000000pt" viewBox="0 0 1500.000000 461.000000"
 preserveAspectRatio="xMidYMid meet">
<metadata>
Created by potrace 1.16, written by Peter Selinger 2001-2019
</metadata>
<g transform="translate(0.000000,461.000000) scale(0.100000,-0.100000)"
fill="#000000" stroke="none">
<path d="M755 4191 c-3 -6 -27 -7 -55 -4 -31 4 -50 2 -50 -4 0 -6 -15 -16 -32
-24 -18 -7 -50 -23 -70 -36 -21 -13 -47 -23 -59 -23 -12 0 -20 -2 -17 -5 7 -8
-135 -150 -146 -147 -5 2 -6 -4 -3 -12 3 -7 -3 -31 -13 -52 -10 -22 -26 -56
-35 -76 -10 -21 -21 -38 -26 -38 -4 0 -8 -650 -9 -1445 0 -888 4 -1445 10
-1445 10 0 60 -95 60 -116 0 -8 5 -14 10 -14 6 0 10 -7 10 -15 0 -15 133 -155
148 -155 4 0 18 -10 32 -23 14 -12 40 -29 58 -36 17 -7 32 -17 32 -22 0 -5 17
-9 38 -9 20 0 50 -7 66 -15 25 -13 206 -15 1432 -15 999 0 1405 3 1410 11 3 6
15 9 25 6 11 -3 17 -1 13 4 -3 5 12 9 33 9 27 0 42 6 51 20 7 11 23 20 37 20
14 0 35 11 47 25 12 14 28 25 35 25 8 0 16 7 19 15 4 8 12 15 19 15 7 0 21 12
31 26 10 15 31 40 47 56 15 16 27 33 27 38 0 6 5 10 10 10 6 0 10 14 10 32 0
17 3 28 7 25 9 -9 43 69 43 98 0 13 5 25 12 27 8 3 10 156 7 604 -2 329 -4
960 -4 1402 0 441 -3 802 -7 802 -5 0 -8 11 -8 24 0 14 -4 27 -9 30 -5 3 -12
22 -15 41 -4 20 -11 33 -17 30 -5 -4 -9 5 -9 19 0 14 -4 26 -10 26 -5 0 -10 5
-10 11 0 21 -138 176 -152 171 -4 -1 -8 2 -8 8 0 5 -9 10 -19 10 -10 0 -21 7
-25 15 -3 8 -11 15 -17 15 -20 0 -109 43 -109 52 0 11 142 10 -1467 14 -867 3
-1374 1 -1378 -5z m1755 -882 c25 -5 62 -12 83 -16 20 -3 37 -10 37 -14 0 -5
8 -9 18 -9 10 0 27 -7 38 -15 10 -8 34 -15 52 -15 17 0 32 -4 32 -9 0 -5 9
-12 19 -16 11 -3 23 -14 26 -24 3 -10 20 -24 38 -32 17 -8 32 -18 32 -24 0 -5
13 -23 28 -39 15 -16 25 -36 23 -43 -3 -7 -2 -13 3 -13 26 0 39 -106 33 -271
-1 -49 -7 -70 -22 -87 -11 -12 -20 -27 -20 -35 0 -8 -9 -24 -20 -37 -11 -13
-20 -28 -20 -33 0 -15 -69 -79 -78 -73 -5 3 -21 -8 -36 -25 -15 -16 -32 -27
-37 -23 -5 3 -9 0 -9 -5 0 -6 -8 -11 -19 -11 -25 0 -45 -26 -36 -47 6 -14 9
-15 12 -4 4 9 12 6 29 -14 18 -22 29 -26 49 -21 26 7 71 -15 58 -27 -3 -4 8
-7 26 -7 19 0 34 -6 37 -15 4 -8 16 -15 28 -15 13 0 36 -16 56 -40 19 -22 40
-40 46 -40 14 0 54 -64 54 -86 0 -8 5 -14 11 -14 7 0 9 -10 5 -25 -4 -14 -2
-25 4 -25 5 0 10 -18 10 -40 0 -22 5 -40 10 -40 6 0 10 -35 10 -85 0 -50 -4
-85 -10 -85 -5 0 -10 -23 -10 -51 0 -35 -3 -48 -11 -43 -8 5 -10 -1 -5 -19 3
-14 2 -28 -3 -31 -4 -3 -11 -18 -14 -33 -3 -16 -20 -43 -36 -61 -17 -18 -42
-48 -57 -67 -14 -19 -31 -35 -38 -35 -6 0 -36 -23 -66 -50 -30 -27 -63 -50
-72 -50 -9 0 -20 -5 -24 -11 -3 -6 -15 -9 -25 -6 -11 3 -19 1 -19 -4 0 -5 -7
-9 -15 -9 -8 0 -15 -4 -15 -8 0 -12 -87 -35 -101 -27 -6 4 -14 3 -18 -3 -7
-12 -531 -23 -531 -11 0 4 -7 10 -16 13 -11 4 -14 1 -12 -12 4 -21 -34 -55
-44 -39 -3 6 -28 12 -55 13 -26 1 -64 6 -83 11 -19 5 -128 9 -242 9 l-208 -1
-2 65 c-1 36 -1 83 0 105 3 64 -16 143 -42 178 -52 68 -59 208 -18 332 11 33
27 100 37 149 15 78 16 98 5 153 -16 83 -16 173 0 203 17 31 16 2 18 463 l2
387 538 0 c310 -1 556 -5 582 -11z"/>
<path d="M1930 2980 c0 -5 -13 -10 -30 -10 l-30 0 0 -228 c0 -164 3 -231 12
-240 16 -16 334 -17 344 -1 4 7 24 9 50 6 24 -2 42 -1 39 3 -3 4 8 10 23 13
15 3 36 14 47 24 11 11 28 22 38 26 9 3 17 13 17 21 0 8 6 27 14 43 28 55 34
111 19 156 -23 68 -43 107 -56 107 -7 0 -19 9 -27 20 -8 11 -29 23 -47 26 -18
3 -36 10 -39 15 -3 5 -81 9 -175 9 -106 0 -169 4 -169 10 0 6 -7 10 -15 10 -8
0 -15 -4 -15 -10z"/>
<path d="M1935 2144 c-28 -30 -32 -46 -10 -38 15 6 64 -33 65 -50 0 -5 9 -28
19 -50 11 -23 26 -77 34 -121 11 -67 11 -91 0 -140 -7 -33 -17 -67 -22 -76 -6
-11 -5 -25 4 -42 9 -18 10 -28 2 -36 -8 -8 -6 -11 6 -11 15 0 20 9 19 30 0 3
70 5 156 5 115 0 156 3 160 13 2 6 17 12 34 12 16 0 36 7 44 15 9 8 24 15 35
15 19 0 34 13 86 74 13 15 25 46 29 76 4 28 11 53 15 56 12 7 12 54 0 54 -4 0
-11 24 -14 53 -4 33 -13 57 -24 65 -10 7 -18 17 -18 22 0 11 -50 50 -64 50 -6
0 -27 9 -47 21 -23 12 -46 18 -60 15 -12 -3 -26 -2 -29 4 -4 6 -81 10 -201 10
l-195 0 -24 -26z"/>
<path d="M6595 3366 c-5 -3 -22 -7 -36 -10 -31 -7 -69 -38 -69 -57 0 -8 -7
-23 -15 -33 -8 -11 -15 -34 -15 -51 0 -17 -5 -36 -12 -43 -9 -9 -9 -15 0 -24
7 -7 12 -25 12 -40 0 -36 36 -108 54 -108 8 0 16 -7 20 -15 3 -8 15 -15 26
-15 11 0 20 -4 20 -10 0 -6 44 -10 111 -10 71 0 108 4 104 10 -3 6 2 10 12 10
22 1 63 35 86 72 26 41 24 190 -3 246 -29 60 -65 75 -185 79 -55 1 -104 1
-110 -1z"/>
<path d="M11955 3358 c-4 -11 -1 -1780 3 -1935 2 -81 6 -83 182 -83 161 0 180
4 180 42 0 21 32 98 41 98 7 0 53 -38 98 -81 16 -15 46 -32 67 -39 21 -7 52
-18 67 -26 33 -16 305 -20 335 -5 9 5 35 14 57 20 36 9 61 25 128 84 11 9 23
17 27 17 4 0 24 25 46 57 21 31 43 61 49 67 10 11 33 66 42 101 5 21 11 38 33
90 19 46 33 177 33 310 -1 137 -11 265 -23 280 -5 6 -11 27 -15 48 -4 20 -11
37 -16 37 -5 0 -9 10 -9 23 -1 12 -7 33 -15 47 -8 14 -14 33 -15 43 0 10 -10
29 -22 42 -37 40 -48 54 -48 64 0 5 -25 31 -56 58 -31 26 -62 54 -69 61 -8 6
-20 12 -28 12 -8 0 -28 7 -43 15 -16 8 -39 15 -51 15 -12 0 -23 6 -25 12 -5
15 -248 15 -257 0 -3 -5 -25 -13 -48 -17 -24 -4 -43 -11 -43 -16 0 -5 -11 -9
-23 -9 -13 0 -42 -17 -65 -37 -22 -21 -47 -43 -55 -50 -8 -7 -17 -18 -20 -25
-2 -8 -8 -9 -13 -4 -5 5 -4 11 4 13 9 4 12 82 12 344 l0 339 -220 0 c-167 0
-222 -3 -225 -12z m743 -888 c41 0 52 -5 92 -43 29 -27 50 -58 59 -87 8 -25
18 -49 23 -54 4 -6 8 -25 8 -43 0 -18 4 -33 9 -33 12 0 12 -268 0 -276 -5 -3
-9 -15 -9 -28 0 -12 -3 -26 -7 -29 -3 -4 -14 -30 -24 -57 -19 -54 -90 -130
-120 -130 -10 0 -21 -4 -24 -10 -8 -12 -89 -13 -113 -1 -9 5 -30 15 -47 22
-57 26 -89 65 -123 149 -23 56 -29 377 -8 440 9 27 16 54 16 60 0 6 16 28 35
48 19 20 35 40 35 45 0 4 7 7 15 7 8 0 15 4 15 9 0 10 82 20 108 14 8 -2 35
-3 60 -3z"/>
<path d="M4748 3253 c-17 -4 -18 -58 -18 -944 0 -830 2 -942 15 -956 14 -13
72 -14 473 -10 345 3 470 7 510 18 28 8 52 17 52 21 0 5 9 8 19 8 21 0 84 30
89 43 2 4 11 7 19 7 23 0 118 79 158 132 54 70 65 90 65 118 0 17 4 29 9 26 4
-3 11 18 15 47 13 113 3 352 -15 341 -5 -3 -9 8 -9 24 0 16 -7 35 -15 42 -8 7
-15 19 -15 28 0 8 -3 12 -6 9 -8 -7 -44 31 -44 45 0 5 -4 7 -9 4 -5 -3 -11 3
-14 14 -3 11 -12 20 -21 20 -9 0 -16 4 -16 8 0 4 -25 16 -55 27 -60 20 -60 20
20 59 32 15 75 59 75 76 0 6 4 10 9 10 5 0 11 8 15 18 3 9 14 31 25 47 11 17
20 39 20 50 1 11 8 33 16 49 21 39 20 213 0 240 -8 11 -15 34 -15 50 0 19 -10
43 -25 60 -14 16 -25 38 -25 48 0 11 -4 16 -10 13 -5 -3 -10 1 -10 9 0 9 -3
16 -7 16 -5 1 -30 21 -57 45 -28 25 -54 45 -59 45 -5 0 -23 6 -40 14 -63 28
-118 46 -137 46 -11 0 -28 4 -38 9 -45 23 -182 31 -545 30 -210 -1 -390 -3
-399 -6z m740 -378 c23 -4 45 -11 48 -16 3 -5 20 -9 37 -9 50 0 87 -65 87
-151 0 -64 -27 -123 -61 -134 -10 -4 -19 -11 -19 -16 0 -5 -10 -9 -23 -9 -13
0 -32 -7 -43 -15 -15 -11 -54 -14 -176 -15 l-158 0 0 191 0 190 133 -5 c72 -2
151 -7 175 -11z m74 -743 c7 -7 20 -12 30 -12 10 0 18 -4 18 -10 0 -5 6 -10
13 -10 6 -1 21 -9 32 -18 75 -67 74 -200 -1 -295 -12 -15 -27 -27 -33 -27 -6
0 -21 -5 -34 -12 -12 -6 -31 -16 -42 -21 -11 -6 -98 -12 -192 -15 l-173 -5 0
223 0 222 185 -4 c126 -3 189 -8 197 -16z"/>
<path d="M8932 3248 c-9 -9 -12 -233 -12 -946 0 -796 2 -936 14 -948 12 -12
106 -14 600 -14 l586 0 0 185 0 185 -377 0 -378 0 3 749 c2 484 -1 757 -7 775
l-11 26 -203 0 c-145 0 -206 -3 -215 -12z"/>
<path d="M7798 2842 c-32 -1 -58 -7 -58 -12 0 -6 -20 -10 -44 -10 -26 0 -51
-6 -60 -15 -8 -8 -28 -15 -45 -15 -31 0 -85 -30 -134 -75 -15 -14 -30 -25 -33
-25 -18 0 -114 -107 -114 -127 0 -7 -4 -13 -10 -13 -5 0 -10 -5 -10 -11 0 -6
-7 -17 -15 -25 -8 -9 -15 -24 -15 -35 0 -10 -4 -19 -10 -19 -5 0 -10 -11 -10
-24 0 -14 -4 -27 -9 -30 -5 -4 -12 -25 -16 -49 -4 -23 -11 -46 -15 -52 -26
-34 -26 -445 0 -445 4 0 10 -18 14 -41 4 -23 15 -60 26 -82 11 -22 20 -45 20
-51 0 -12 62 -110 72 -114 5 -2 8 -8 8 -14 0 -9 77 -88 86 -88 3 0 17 -11 32
-25 15 -14 31 -25 35 -25 5 0 23 -11 40 -24 18 -13 69 -35 115 -50 77 -24 96
-26 266 -26 101 0 186 4 192 9 5 6 25 12 44 16 46 7 90 25 90 36 0 5 8 9 18 9
11 0 36 12 57 28 50 35 175 163 175 179 0 6 3 13 8 15 10 4 42 67 42 84 0 8 4
14 10 14 5 0 13 18 16 40 4 22 11 43 15 46 5 3 9 18 9 35 0 16 5 29 10 29 6 0
10 80 10 220 0 140 -4 220 -10 220 -5 0 -10 11 -10 24 0 14 -4 27 -9 30 -5 4
-12 24 -16 46 -4 22 -11 40 -16 40 -5 0 -9 8 -9 19 0 10 -7 24 -15 31 -8 7
-15 21 -15 31 0 11 -4 19 -10 19 -5 0 -10 5 -10 11 0 6 -18 28 -40 50 -22 22
-40 47 -40 55 0 8 -4 12 -10 9 -5 -3 -10 1 -10 9 0 9 -8 16 -19 16 -10 0 -25
7 -32 17 -26 31 -118 83 -148 83 -16 0 -31 5 -33 11 -2 5 -24 13 -48 16 -25 3
-48 10 -51 14 -6 10 -171 17 -261 11z m247 -403 c46 -33 68 -69 103 -174 28
-81 20 -341 -11 -405 -10 -18 -17 -39 -17 -46 0 -25 -36 -74 -67 -91 -18 -10
-33 -21 -33 -25 0 -5 -8 -8 -18 -8 -10 0 -23 -5 -29 -11 -12 -12 -117 -7 -169
7 -39 12 -124 84 -124 106 0 10 -4 18 -10 18 -5 0 -10 17 -10 38 0 21 -5 43
-12 50 -17 17 -17 347 0 364 6 6 12 29 12 50 0 21 5 38 10 38 6 0 10 5 10 11
0 6 17 29 39 50 21 22 44 39 50 39 6 0 11 5 11 10 0 6 44 10 111 10 108 0 112
-1 154 -31z"/>
<path d="M10818 2843 c-27 -2 -48 -8 -48 -14 0 -5 -15 -9 -32 -9 -18 0 -46 -7
-62 -15 -15 -8 -42 -15 -59 -15 -30 0 -117 -28 -127 -40 -3 -4 -20 -13 -37
-21 -26 -11 -33 -20 -33 -41 0 -35 10 -59 21 -52 5 3 9 -6 9 -19 0 -14 7 -30
15 -37 8 -7 15 -23 15 -35 0 -13 4 -25 8 -27 4 -1 20 -29 35 -60 27 -58 41
-67 75 -48 52 29 129 60 149 60 13 0 40 7 60 15 57 24 225 21 280 -6 24 -11
43 -28 43 -37 0 -8 6 -23 14 -31 8 -9 18 -44 22 -78 6 -57 5 -63 -12 -64 -11
0 -104 -2 -208 -5 -135 -3 -203 -9 -235 -20 -25 -9 -71 -20 -101 -25 -30 -5
-56 -13 -58 -19 -2 -5 -10 -10 -18 -10 -8 0 -32 -11 -54 -25 -22 -14 -43 -25
-47 -25 -5 0 -18 -13 -31 -28 -12 -15 -34 -40 -47 -57 -14 -16 -28 -40 -31
-52 -4 -13 -10 -23 -15 -23 -5 0 -9 -24 -9 -52 0 -38 -3 -49 -10 -38 -7 10
-10 -26 -9 -110 0 -79 4 -118 9 -105 6 14 9 2 9 -42 1 -35 5 -63 11 -63 5 0
12 -11 16 -25 3 -14 10 -25 15 -25 5 0 9 -7 9 -15 0 -8 5 -15 10 -15 6 0 10
-6 10 -14 0 -8 21 -32 47 -53 27 -21 54 -44 61 -51 8 -6 34 -17 58 -23 24 -6
47 -15 50 -20 3 -5 80 -9 172 -9 151 0 174 2 237 25 38 13 71 29 73 34 2 6 8
11 13 11 11 0 20 7 88 70 27 25 51 52 54 60 3 8 6 -4 6 -27 1 -24 5 -43 9 -43
5 0 14 -18 21 -40 20 -68 26 -70 180 -70 93 0 141 4 149 12 15 15 18 1098 3
1098 -5 0 -13 25 -16 55 -4 30 -11 55 -16 55 -5 0 -9 8 -9 18 0 9 -11 29 -25
44 -14 15 -25 31 -25 36 0 11 -57 62 -70 62 -5 0 -10 4 -10 8 0 5 -16 17 -35
28 -19 10 -35 22 -35 26 0 5 -11 8 -24 8 -13 0 -40 7 -59 15 -20 8 -47 15 -61
15 -13 0 -26 4 -28 10 -3 10 -281 21 -360 13z m349 -929 c-4 -51 -12 -96 -22
-110 -8 -13 -15 -29 -15 -36 0 -6 -23 -33 -52 -60 -49 -45 -56 -48 -106 -48
-33 0 -51 -4 -47 -10 4 -6 -12 -10 -40 -10 -28 0 -44 4 -40 10 4 6 -7 10 -26
10 -37 0 -79 35 -79 67 0 12 -4 25 -10 28 -13 8 -13 62 -1 70 5 3 12 19 16 35
7 30 68 90 92 90 7 0 13 4 13 9 0 18 115 38 229 40 l94 1 -6 -86z"/>
<path d="M14010 2843 c-25 -2 -54 -8 -65 -12 -11 -5 -40 -12 -65 -15 -24 -2
-46 -10 -48 -15 -2 -6 -16 -11 -32 -11 -63 0 -183 -94 -225 -176 -11 -22 -24
-42 -30 -46 -16 -11 -13 -300 3 -305 6 -3 12 -16 12 -29 0 -13 4 -24 9 -24 5
0 12 -9 16 -19 6 -20 67 -91 78 -91 3 0 20 -13 37 -30 17 -16 37 -30 45 -30 8
0 15 -3 15 -8 0 -7 73 -42 89 -42 5 0 11 -3 13 -7 5 -12 76 -43 98 -43 11 0
20 -4 20 -10 0 -5 12 -10 26 -10 14 0 23 -4 20 -9 -4 -5 7 -12 24 -16 16 -4
30 -10 30 -13 0 -4 29 -22 64 -41 44 -23 67 -42 71 -58 3 -12 10 -23 15 -23
18 0 11 -21 -21 -61 l-31 -39 -99 0 c-59 0 -99 -4 -99 -10 0 -5 -5 -10 -11
-10 -5 0 -8 4 -5 9 3 4 -31 11 -75 14 -45 3 -86 10 -92 16 -6 6 -21 11 -33 11
-13 0 -25 4 -28 9 -3 4 -20 11 -38 15 -42 8 -88 29 -88 38 0 5 -18 8 -40 8
l-40 0 0 -185 0 -185 25 0 c14 0 25 -4 25 -8 0 -10 56 -27 120 -37 25 -4 50
-12 57 -17 16 -13 490 -13 506 0 7 5 31 12 55 16 53 8 126 41 169 75 17 14 43
34 58 45 15 10 31 31 37 47 5 16 14 29 19 29 5 0 9 7 9 15 0 8 4 15 9 15 5 0
12 18 16 40 4 22 11 42 16 46 5 3 9 59 9 124 0 65 -4 121 -9 124 -5 4 -12 24
-16 46 -4 22 -11 40 -16 40 -5 0 -9 6 -9 13 0 7 -20 35 -44 63 -44 50 -199
154 -230 154 -9 0 -47 15 -84 34 -92 46 -138 66 -154 66 -19 0 -78 38 -99 63
-26 31 -24 79 4 96 35 23 186 27 246 7 27 -9 59 -16 71 -16 11 0 28 -4 38 -9
61 -34 133 -62 148 -59 21 4 70 96 79 149 4 21 11 39 16 39 5 0 9 6 9 14 0 7
7 27 15 42 23 45 19 83 -10 94 -14 5 -44 19 -67 30 -23 11 -52 20 -64 20 -12
0 -41 7 -64 15 -23 8 -57 15 -75 15 -19 0 -35 4 -37 9 -3 10 -219 20 -298 14z"/>
<path d="M6488 2809 c-17 -9 -18 -55 -18 -727 0 -545 3 -721 12 -730 9 -9 69
-12 208 -12 196 0 197 0 209 24 11 19 10 27 0 44 -11 17 -11 24 -1 34 16 16
17 388 2 388 -7 0 -9 72 -5 223 15 615 15 711 5 721 -5 5 -10 18 -10 28 0 17
-14 18 -192 18 -113 0 -200 -5 -210 -11z"/>
</g>
</svg>
